<svg xmlns="http://www.w3.org/2000/svg" width="20" height="20" viewBox="0 0 20 20" fill="none">
  <g clip-path="url(#clip0_84_52)">
    <path d="M8.795 5.20019L5.97583 1.94602C5.65083 1.57102 5.055 1.57269 4.6775 1.95102L2.35917 4.27352C1.66917 4.96435 1.47167 5.99019 1.87083 6.81269C4.25552 11.7502 8.23754 15.7378 13.1717 18.1294C13.9933 18.5285 15.0183 18.331 15.7083 17.6402L18.0483 15.296C18.4275 14.9169 18.4283 14.3177 18.05 13.9927L14.7833 11.1885C14.4417 10.8952 13.9108 10.9335 13.5683 11.2769L12.4317 12.4152C12.3735 12.4762 12.2969 12.5164 12.2136 12.5296C12.1304 12.5429 12.0451 12.5284 11.9708 12.4885C10.1129 11.4186 8.57166 9.87538 7.50417 8.01602C7.46419 7.94165 7.44971 7.85621 7.46296 7.77282C7.47621 7.68942 7.51644 7.61268 7.5775 7.55435L8.71083 6.42019C9.05417 6.07519 9.09167 5.54185 8.795 5.19935V5.20019Z" stroke="white" stroke-width="2" stroke-linecap="round" stroke-linejoin="round"/>
  </g>
  <defs>
    <clipPath id="clip0_84_52">
      <rect width="20" height="20" fill="white"/>
    </clipPath>
  </defs>
</svg>