<svg xmlns="http://www.w3.org/2000/svg" width="20" height="20" viewBox="0 0 20 20" fill="none">
  <path d="M1.66669 5.00004C1.66669 4.55801 1.84228 4.13409 2.15484 3.82153C2.4674 3.50897 2.89133 3.33337 3.33335 3.33337H16.6667C17.1087 3.33337 17.5326 3.50897 17.8452 3.82153C18.1578 4.13409 18.3334 4.55801 18.3334 5.00004V15C18.3334 15.4421 18.1578 15.866 17.8452 16.1786C17.5326 16.4911 17.1087 16.6667 16.6667 16.6667H3.33335C2.89133 16.6667 2.4674 16.4911 2.15484 16.1786C1.84228 15.866 1.66669 15.4421 1.66669 15V5.00004Z" stroke="#F1F0FB" stroke-width="2" stroke-linecap="round" stroke-linejoin="round"/>
  <path d="M1.66669 6.66663L7.91752 11.6675C8.50859 12.1404 9.24304 12.398 10 12.398C10.757 12.398 11.4914 12.1404 12.0825 11.6675L18.3334 6.66663" stroke="#F1F0FB" stroke-width="2" stroke-linecap="round" stroke-linejoin="round"/>
</svg>