<svg xmlns="http://www.w3.org/2000/svg" width="16" height="16" viewBox="0 0 16 16" fill="none">
  <path d="M1.33331 3.99999C1.33331 3.64637 1.47379 3.30723 1.72384 3.05718C1.97389 2.80713 2.31302 2.66666 2.66665 2.66666H13.3333C13.6869 2.66666 14.0261 2.80713 14.2761 3.05718C14.5262 3.30723 14.6666 3.64637 14.6666 3.99999V12C14.6666 12.3536 14.5262 12.6927 14.2761 12.9428C14.0261 13.1928 13.6869 13.3333 13.3333 13.3333H2.66665C2.31302 13.3333 1.97389 13.1928 1.72384 12.9428C1.47379 12.6927 1.33331 12.3536 1.33331 12V3.99999Z" stroke="white" stroke-linecap="round" stroke-linejoin="round"/>
  <path d="M1.33331 5.33334L6.33398 9.33401C6.80684 9.71235 7.39439 9.91848 7.99998 9.91848C8.60557 9.91848 9.19312 9.71235 9.66598 9.33401L14.6666 5.33334" stroke="white" stroke-linecap="round" stroke-linejoin="round"/>
</svg>