<svg xmlns="http://www.w3.org/2000/svg" width="45" height="45" viewBox="0 0 45 45" fill="none">
  <path d="M26.25 35.625C33.3206 35.625 36.8569 35.625 39.0525 33.4275C41.25 31.2319 41.25 27.6956 41.25 20.625C41.25 13.5544 41.25 10.0181 39.0525 7.8225C36.8569 5.625 33.3206 5.625 26.25 5.625H18.75C11.6794 5.625 8.14312 5.625 5.9475 7.8225C3.75 10.0181 3.75 13.5544 3.75 20.625C3.75 27.6956 3.75 31.2319 5.9475 33.4275C7.17187 34.6537 8.8125 35.1956 11.25 35.4338" stroke="#5E3BEE" stroke-width="2" stroke-linecap="round" stroke-linejoin="round"/>
  <path d="M26.25 35.625C23.9325 35.625 21.3787 36.5625 19.0481 37.7719C15.3019 39.7162 13.4287 40.6894 12.5062 40.0687C11.5837 39.45 11.7581 37.5281 12.1087 33.6862L12.1875 32.8125" stroke="#5E3BEE" stroke-width="2" stroke-linecap="round" stroke-linejoin="round"/>
</svg>